<?xml version="1.0" encoding="UTF-8" standalone="no"?>
<!DOCTYPE svg PUBLIC "-//W3C//DTD SVG 1.1//EN"
 "http://www.w3.org/Graphics/SVG/1.1/DTD/svg11.dtd">
<!-- Generated by graphviz version 2.43.0 (0)
 -->
<!-- Title: sourcetree Pages: 1 -->
<svg width="362pt" height="188pt"
 viewBox="0.00 0.00 361.50 188.00" xmlns="http://www.w3.org/2000/svg" xmlns:xlink="http://www.w3.org/1999/xlink">
<g id="graph0" class="graph" transform="scale(1 1) rotate(0) translate(4 184)">
<title>sourcetree</title>
<polygon fill="white" stroke="transparent" points="-4,4 -4,-184 357.5,-184 357.5,4 -4,4"/>
<!-- mulle&#45;linkedlist -->
<g id="node1" class="node">
<title>mulle&#45;linkedlist</title>
<polygon fill="yellow" stroke="black" points="248,-180 121,-180 121,-144 248,-144 248,-180"/>
<text text-anchor="middle" x="184.5" y="-158.3" font-family="Times,serif" font-size="14.00">mulle&#45;linkedlist</text>
</g>
<!-- mulle&#45;allocator -->
<g id="node3" class="node">
<title>mulle&#45;allocator</title>
<g id="a_node3"><a xlink:href="https://github.com/mulle-c/mulle-allocator" xlink:title="mulle&#45;allocator">
<polygon fill="lightgrey" stroke="black" points="123,-108 0,-108 0,-72 123,-72 123,-108"/>
<text text-anchor="middle" x="61.5" y="-86.3" font-family="Times,serif" font-size="14.00">mulle&#45;allocator</text>
</a>
</g>
</g>
<!-- mulle&#45;linkedlist&#45;&gt;mulle&#45;allocator -->
<g id="edge1" class="edge">
<title>mulle&#45;linkedlist&#45;&gt;mulle&#45;allocator</title>
<path fill="none" stroke="black" d="M154.41,-143.88C138.18,-134.64 117.96,-123.13 100.53,-113.21"/>
<polygon fill="black" stroke="black" points="102.13,-110.09 91.7,-108.19 98.66,-116.18 102.13,-110.09"/>
</g>
<!-- mulle&#45;c11 -->
<g id="node4" class="node">
<title>mulle&#45;c11</title>
<g id="a_node4"><a xlink:href="https://github.com/mulle-c/mulle-c11" xlink:title="mulle&#45;c11">
<polygon fill="lightgrey" stroke="black" points="227.5,-108 141.5,-108 141.5,-72 227.5,-72 227.5,-108"/>
<text text-anchor="middle" x="184.5" y="-86.3" font-family="Times,serif" font-size="14.00">mulle&#45;c11</text>
</a>
</g>
</g>
<!-- mulle&#45;linkedlist&#45;&gt;mulle&#45;c11 -->
<g id="edge2" class="edge">
<title>mulle&#45;linkedlist&#45;&gt;mulle&#45;c11</title>
<path fill="none" stroke="black" d="M184.5,-143.7C184.5,-135.98 184.5,-126.71 184.5,-118.11"/>
<polygon fill="black" stroke="black" points="188,-118.1 184.5,-108.1 181,-118.1 188,-118.1"/>
</g>
<!-- mulle&#45;thread -->
<g id="node5" class="node">
<title>mulle&#45;thread</title>
<g id="a_node5"><a xlink:href="https://github.com/mulle-concurrent/mulle-thread" xlink:title="mulle&#45;thread">
<polygon fill="lightgrey" stroke="black" points="353.5,-108 245.5,-108 245.5,-72 353.5,-72 353.5,-108"/>
<text text-anchor="middle" x="299.5" y="-86.3" font-family="Times,serif" font-size="14.00">mulle&#45;thread</text>
</a>
</g>
</g>
<!-- mulle&#45;linkedlist&#45;&gt;mulle&#45;thread -->
<g id="edge3" class="edge">
<title>mulle&#45;linkedlist&#45;&gt;mulle&#45;thread</title>
<path fill="none" stroke="black" d="M212.63,-143.88C227.67,-134.72 246.37,-123.34 262.56,-113.48"/>
<polygon fill="black" stroke="black" points="264.54,-116.38 271.26,-108.19 260.9,-110.4 264.54,-116.38"/>
</g>
<!-- mintomic -->
<g id="node2" class="node">
<title>mintomic</title>
<g id="a_node2"><a xlink:href="https://github.com/mulle-concurrent/mintomic" xlink:title="mintomic">
<polygon fill="lightgrey" stroke="black" points="341,-36 258,-36 258,0 341,0 341,-36"/>
<text text-anchor="middle" x="299.5" y="-14.3" font-family="Times,serif" font-size="14.00">mintomic</text>
</a>
</g>
</g>
<!-- mulle&#45;thread&#45;&gt;mintomic -->
<g id="edge4" class="edge">
<title>mulle&#45;thread&#45;&gt;mintomic</title>
<path fill="none" stroke="black" d="M299.5,-71.7C299.5,-63.98 299.5,-54.71 299.5,-46.11"/>
<polygon fill="black" stroke="black" points="303,-46.1 299.5,-36.1 296,-46.1 303,-46.1"/>
</g>
</g>
</svg>
