<?xml version="1.0" encoding="UTF-8" standalone="no"?>
<!DOCTYPE svg PUBLIC "-//W3C//DTD SVG 1.1//EN"
 "http://www.w3.org/Graphics/SVG/1.1/DTD/svg11.dtd">
<!-- Generated by graphviz version 2.43.0 (0)
 -->
<!-- Title: sourcetree Pages: 1 -->
<svg width="362pt" height="116pt"
 viewBox="0.00 0.00 361.50 116.00" xmlns="http://www.w3.org/2000/svg" xmlns:xlink="http://www.w3.org/1999/xlink">
<g id="graph0" class="graph" transform="scale(1 1) rotate(0) translate(4 112)">
<title>sourcetree</title>
<polygon fill="white" stroke="transparent" points="-4,4 -4,-112 357.5,-112 357.5,4 -4,4"/>
<!-- mulle&#45;linkedlist -->
<g id="node1" class="node">
<title>mulle&#45;linkedlist</title>
<polygon fill="yellow" stroke="black" points="248,-108 121,-108 121,-72 248,-72 248,-108"/>
<text text-anchor="middle" x="184.5" y="-86.3" font-family="Times,serif" font-size="14.00">mulle&#45;linkedlist</text>
</g>
<!-- mulle&#45;allocator -->
<g id="node2" class="node">
<title>mulle&#45;allocator</title>
<g id="a_node2"><a xlink:href="https://github.com/mulle-c/mulle-allocator" xlink:title="mulle&#45;allocator">
<polygon fill="lightgrey" stroke="black" points="123,-36 0,-36 0,0 123,0 123,-36"/>
<text text-anchor="middle" x="61.5" y="-14.3" font-family="Times,serif" font-size="14.00">mulle&#45;allocator</text>
</a>
</g>
</g>
<!-- mulle&#45;linkedlist&#45;&gt;mulle&#45;allocator -->
<g id="edge1" class="edge">
<title>mulle&#45;linkedlist&#45;&gt;mulle&#45;allocator</title>
<path fill="none" stroke="black" d="M154.41,-71.88C138.18,-62.64 117.96,-51.13 100.53,-41.21"/>
<polygon fill="black" stroke="black" points="102.13,-38.09 91.7,-36.19 98.66,-44.18 102.13,-38.09"/>
</g>
<!-- mulle&#45;c11 -->
<g id="node3" class="node">
<title>mulle&#45;c11</title>
<g id="a_node3"><a xlink:href="https://github.com/mulle-c/mulle-c11" xlink:title="mulle&#45;c11">
<polygon fill="lightgrey" stroke="black" points="227.5,-36 141.5,-36 141.5,0 227.5,0 227.5,-36"/>
<text text-anchor="middle" x="184.5" y="-14.3" font-family="Times,serif" font-size="14.00">mulle&#45;c11</text>
</a>
</g>
</g>
<!-- mulle&#45;linkedlist&#45;&gt;mulle&#45;c11 -->
<g id="edge2" class="edge">
<title>mulle&#45;linkedlist&#45;&gt;mulle&#45;c11</title>
<path fill="none" stroke="black" d="M184.5,-71.7C184.5,-63.98 184.5,-54.71 184.5,-46.11"/>
<polygon fill="black" stroke="black" points="188,-46.1 184.5,-36.1 181,-46.1 188,-46.1"/>
</g>
<!-- mulle&#45;thread -->
<g id="node4" class="node">
<title>mulle&#45;thread</title>
<g id="a_node4"><a xlink:href="https://github.com/mulle-concurrent/mulle-thread" xlink:title="mulle&#45;thread">
<polygon fill="lightgrey" stroke="black" points="353.5,-36 245.5,-36 245.5,0 353.5,0 353.5,-36"/>
<text text-anchor="middle" x="299.5" y="-14.3" font-family="Times,serif" font-size="14.00">mulle&#45;thread</text>
</a>
</g>
</g>
<!-- mulle&#45;linkedlist&#45;&gt;mulle&#45;thread -->
<g id="edge3" class="edge">
<title>mulle&#45;linkedlist&#45;&gt;mulle&#45;thread</title>
<path fill="none" stroke="black" d="M212.63,-71.88C227.67,-62.72 246.37,-51.34 262.56,-41.48"/>
<polygon fill="black" stroke="black" points="264.54,-44.38 271.26,-36.19 260.9,-38.4 264.54,-44.38"/>
</g>
</g>
</svg>
